<svg xmlns="http://www.w3.org/2000/svg" viewBox="0 0 512 512">
  <rect width="512" height="512" rx="48" fill="#1a1a1a"/>
  <clipPath id="c"><rect width="512" height="512" rx="48"/></clipPath>
  <g clip-path="url(#c)">
    <rect y="450" width="512" height="62" fill="#1a5c4c"/>
  </g>
  <!-- Axes -->
  <line x1="92" y1="92" x2="92" y2="410" stroke="rgba(255,255,255,0.2)" stroke-width="4"/>
  <line x1="92" y1="410" x2="440" y2="410" stroke="rgba(255,255,255,0.2)" stroke-width="4"/>
  <!-- Sigmoid curve -->
  <path d="M100,395 C130,392 165,385 200,365 C235,342 260,300 290,240 C320,180 350,140 385,120 C405,110 425,105 440,103"
        fill="none" stroke="#1a5c4c" stroke-width="22" stroke-linecap="round"/>
  <!-- Data points -->
  <circle cx="140" cy="390" r="14" fill="#2a8a6e"/>
  <circle cx="220" cy="352" r="14" fill="#2a8a6e"/>
  <circle cx="290" cy="240" r="14" fill="#2a8a6e"/>
  <circle cx="360" cy="128" r="14" fill="#2a8a6e"/>
  <circle cx="430" cy="105" r="14" fill="#2a8a6e"/>
  <!-- Medical cross -->
  <rect x="362" y="52" width="48" height="16" rx="3" fill="rgba(255,255,255,0.75)"/>
  <rect x="378" y="36" width="16" height="48" rx="3" fill="rgba(255,255,255,0.75)"/>
</svg>
